<svg xmlns="http://www.w3.org/2000/svg" width="40" height="40" fill="none" viewBox="0 0 40 40"><g clip-path="url(#a)"><rect width="40" height="40" fill="#fff" rx="6"/><g clip-path="url(#b)"><path fill="#fff" d="M40 0H0v40h40z"/><g clip-path="url(#c)"><path fill="#c20000" d="M17.492 7.667h-4.657V32c1.527-.362 3.123-.543 4.657-.61z"/><path fill="url(#d)" d="M17.492 7.667h-4.657v18.618c1.527-.362 3.123-.543 4.657-.61z"/><path fill="#c20000" d="M26.165 32V7.667h-4.657v23.77c2.719.174 4.657.563 4.657.563"/><path fill="url(#e)" d="M26.165 32V15.851h-4.657v15.587c2.719.173 4.657.562 4.657.562"/><path fill="#fa0000" d="M26.165 32 17.492 7.667h-4.657l8.468 23.758c2.826.166 4.862.575 4.862.575"/></g></g></g><rect width="39" height="39" x=".5" y=".5" stroke="#e5e5e5" rx="5.5"/><defs><clipPath id="a"><rect width="40" height="40" fill="#fff" rx="6"/></clipPath><clipPath id="b"><path fill="#fff" d="M0 0h40v40H0z"/></clipPath><clipPath id="c"><path fill="#fff" d="M7.333 7.667h24.333V32H7.333z"/></clipPath><linearGradient id="d" x1="12.004" x2="15.471" y1="19.055" y2="16.439" gradientUnits="userSpaceOnUse"><stop stop-color="#c20000" stop-opacity="0"/><stop offset="1" stop-color="#9d0000"/></linearGradient><linearGradient id="e" x1="26.84" x2="23.701" y1="22.674" y2="23.982" gradientUnits="userSpaceOnUse"><stop stop-color="#c20000" stop-opacity="0"/><stop offset="1" stop-color="#9d0000"/></linearGradient></defs></svg>