<svg xmlns="http://www.w3.org/2000/svg" width="40" height="40" fill="none" viewBox="0 0 40 40"><g clip-path="url(#a)"><rect width="40" height="40" fill="#fff" rx="6"/><g clip-path="url(#b)"><path fill="#000" d="M40 0H0v40h40z"/><path fill="#000" d="M5.333 5.333h29.333v29.333H5.333z"/><g clip-path="url(#c)"><path fill="#fff" d="M12.51 11.61v3.53h-1.683v-3.53H8.153v9.49h2.674v-3.682h1.684V21.1h2.594v-9.49zm14.486 2.77c-1.055 0-1.91.851-1.91 1.9s.855 1.899 1.91 1.899c1.056 0 1.912-.85 1.912-1.9a1.905 1.905 0 0 0-1.912-1.898m-.001-2.928c-2.673-.002-4.038 1.953-4.376 2.741.003-1.184-1.172-2.582-2.546-2.583h-4.428v9.49h4.128c1.665 0 2.849-1.433 2.851-2.661.38.773 1.698 2.709 4.371 2.708 2.676-.001 4.854-2.21 4.853-4.87 0-2.715-2.177-4.823-4.853-4.825m-7.568 7.438h-1.313v-1.604h1.313c.382 0 .683.375.683.802s-.3.802-.683.802m.005-3.564H18.12v-1.604h1.313c.382 0 .683.375.683.802s-.3.802-.683.802m1.748.954c.3-.038.802-.38.979-.598-.062.27-.067 1.053.006 1.324-.202-.309-.68-.688-.985-.726m5.816 2.416a2.423 2.423 0 0 1-2.43-2.416 2.424 2.424 0 0 1 2.43-2.416 2.424 2.424 0 0 1 2.432 2.416 2.424 2.424 0 0 1-2.432 2.416m0-4.315c-1.055 0-1.91.85-1.91 1.899s.855 1.899 1.91 1.899c1.056 0 1.912-.85 1.912-1.9a1.905 1.905 0 0 0-1.912-1.898m0 0c-1.055 0-1.91.85-1.91 1.899s.855 1.899 1.91 1.899c1.056 0 1.912-.85 1.912-1.9a1.905 1.905 0 0 0-1.912-1.898"/><mask id="d" width="24" height="7" x="8" y="22" maskUnits="userSpaceOnUse" style="mask-type:luminance"><path fill="#fff" d="M31.097 22.22H8.153v6.203h22.944z"/></mask><g fill="#fff" mask="url(#d)"><path d="M16.89 28.375v-3.713c0-1.64-.45-2.443-1.813-2.443-.768 0-1.588.654-2.039 1.061-.225-.707-.726-1.06-1.628-1.06-.686 0-1.404.514-1.864.91v-.748H8.153v5.993h1.393V24.34c.45-.396 1.106-.878 1.597-.878.584 0 .677.45.677 1.2v3.713h1.393v-3.713c0-.107 0-.215-.01-.31.45-.397 1.116-.89 1.608-.89.584 0 .676.45.676 1.2v3.713zm11.593-3.08a16.8 16.8 0 0 0 2.465-2.914h-1.753c-.43.732-.95 1.363-1.589 2.019-.639-.656-1.203-1.287-1.59-2.018h-1.753a17 17 0 0 0 2.466 2.913 18 18 0 0 0-2.614 3.078h1.753c.475-.794 1.055-1.476 1.738-2.169.684.694 1.263 1.375 1.738 2.17h1.753a18 18 0 0 0-2.614-3.079m-7.952 1.825a1.823 1.823 0 0 1-1.828-1.817c0-1.004.818-1.816 1.828-1.816s1.829.813 1.829 1.816a1.823 1.823 0 0 1-1.829 1.817m1.814-4.739v.725c-.528-.606-1.205-.887-1.986-.887-1.62 0-2.964 1.384-2.964 3.103 0 1.718 1.344 3.101 2.964 3.101.781 0 1.458-.28 1.986-.886v.838h1.393V22.38z"/></g></g></g></g><rect width="39" height="39" x=".5" y=".5" stroke="#e5e5e5" rx="5.5"/><defs><clipPath id="a"><rect width="40" height="40" fill="#fff" rx="6"/></clipPath><clipPath id="b"><path fill="#fff" d="M0 0h40v40H0z"/></clipPath><clipPath id="c"><path fill="#fff" d="M8 11.288h24v17.425H8z"/></clipPath></defs></svg>