<svg xmlns="http://www.w3.org/2000/svg" width="40" height="40" fill="none" viewBox="0 0 40 40"><g clip-path="url(#a)"><rect width="40" height="40" fill="#fff" rx="6"/><g clip-path="url(#b)"><path fill="#fff" d="M40 0H0v40h40z"/><g clip-path="url(#c)"><path fill="#fff" d="M0 0h40v40H0z"/><path fill="url(#d)" d="M40 0H0v40h40z"/><g fill="#fff" clip-path="url(#e)"><path d="M19.755 15.978v1.759h-1.067v1.326h1.067v4.094c0 1.468.604 2.067 2.085 2.067.314 0 .66-.027.842-.065l.064-.014v-1.33l-.092.014a5 5 0 0 1-.488.034c-.565 0-.807-.255-.807-.854v-3.947h1.394v-1.325H21.36v-1.76zm-4.004 1.301c-.854-.064-1.578.484-1.983.484-.41 0-1.042-.47-1.713-.458-.88.013-1.691.52-2.145 1.32-.915 1.612-.234 3.999.657 5.306.435.639.955 1.359 1.638 1.333.657-.027.905-.432 1.7-.432.793 0 1.017.432 1.712.419.707-.014 1.155-.652 1.587-1.295.501-.741.707-1.459.719-1.497-.016-.006-1.379-.537-1.392-2.13-.012-1.333 1.071-1.973 1.12-2.004-.615-.92-1.565-1.021-1.9-1.046m-.527-.863c.363-.445.607-1.065.54-1.681-.522.02-1.154.353-1.528.798-.335.393-.63 1.024-.55 1.628.582.046 1.176-.3 1.538-.745m13.456 1.321-1.73 5.678-1.73-5.678h-1.694l2.59 7.442h1.645l2.584-7.442z"/></g></g></g></g><rect width="39" height="39" x=".5" y=".5" stroke="#e5e5e5" rx="5.5"/><defs><clipPath id="a"><rect width="40" height="40" fill="#fff" rx="6"/></clipPath><clipPath id="b"><path fill="#fff" d="M0 0h40v40H0z"/></clipPath><clipPath id="c"><path fill="#fff" d="M0 0h40v40H0z"/></clipPath><clipPath id="e"><path fill="#fff" d="M9.41 14.667h21v10.667h-21z"/></clipPath><linearGradient id="d" x1="20" x2="20" y1="40" y2="0" gradientUnits="userSpaceOnUse"><stop stop-color="#121312"/><stop offset="1" stop-color="#333"/></linearGradient></defs></svg>