<svg xmlns="http://www.w3.org/2000/svg" width="120" height="204" fill="none" viewBox="0 0 120 204"><path fill="#000" fill-opacity=".08" fill-rule="evenodd" d="M3 0h2v3.106h3v2H5V8H3V5.106H0v-2h3zm0 140h2v3.106h3v2H5V148H3v-2.894H0v-2h3zM3 28h2v3.106h3v2H5V36H3v-2.894H0v-2h3zm0 140h2v3.106h3v2H5V176H3v-2.894H0v-2h3zM3 56h2v3.106h3v2H5V64H3v-2.894H0v-2h3zm0 140h2v3.106h3v2H5V204H3v-2.894H0v-2h3zM3 84h2v3.106h3v2H5V92H3v-2.894H0v-2h3zm0 28h2v3.106h3v2H5V120H3v-2.894H0v-2h3zM31 0h2v3.106h3v2h-3V8h-2V5.106h-3v-2h3zm0 140h2v3.106h3v2h-3V148h-2v-2.894h-3v-2h3zm0-112h2v3.106h3v2h-3V36h-2v-2.894h-3v-2h3zm0 140h2v3.106h3v2h-3V176h-2v-2.894h-3v-2h3zm0-112h2v3.106h3v2h-3V64h-2v-2.894h-3v-2h3zm0 140h2v3.106h3v2h-3V204h-2v-2.894h-3v-2h3zm0-112h2v3.106h3v2h-3V92h-2v-2.894h-3v-2h3zm0 28h2v3.106h3v2h-3V120h-2v-2.894h-3v-2h3zM59 0h2v3.106h3v2h-3V8h-2V5.106h-3v-2h3zm0 140h2v3.106h3v2h-3V148h-2v-2.894h-3v-2h3zm0-112h2v3.106h3v2h-3V36h-2v-2.894h-3v-2h3zm0 140h2v3.106h3v2h-3V176h-2v-2.894h-3v-2h3zm0-112h2v3.106h3v2h-3V64h-2v-2.894h-3v-2h3zm0 140h2v3.106h3v2h-3V204h-2v-2.894h-3v-2h3zm0-112h2v3.106h3v2h-3V92h-2v-2.894h-3v-2h3zm0 28h2v3.106h3v2h-3V120h-2v-2.894h-3v-2h3zM87 0h2v3.106h3v2h-3V8h-2V5.106h-3v-2h3zm0 140h2v3.106h3v2h-3V148h-2v-2.894h-3v-2h3zm0-112h2v3.106h3v2h-3V36h-2v-2.894h-3v-2h3zm0 140h2v3.106h3v2h-3V176h-2v-2.894h-3v-2h3zm0-112h2v3.106h3v2h-3V64h-2v-2.894h-3v-2h3zm0 140h2v3.106h3v2h-3V204h-2v-2.894h-3v-2h3zm0-112h2v3.106h3v2h-3V92h-2v-2.894h-3v-2h3zm0 28h2v3.106h3v2h-3V120h-2v-2.894h-3v-2h3zM115 0h2v3.106h3v2h-3V8h-2V5.106h-3v-2h3zm0 140h2v3.106h3v2h-3V148h-2v-2.894h-3v-2h3zm0-112h2v3.106h3v2h-3V36h-2v-2.894h-3v-2h3zm0 140h2v3.106h3v2h-3V176h-2v-2.894h-3v-2h3zm0-112h2v3.106h3v2h-3V64h-2v-2.894h-3v-2h3zm0 140h2v3.106h3v2h-3V204h-2v-2.894h-3v-2h3zm0-112h2v3.106h3v2h-3V92h-2v-2.894h-3v-2h3zm0 28h2v3.106h3v2h-3V120h-2v-2.894h-3v-2h3z" clip-rule="evenodd"/></svg>