<svg xmlns="http://www.w3.org/2000/svg" width="138" height="120" fill="none" viewBox="0 0 138 120"><path fill="#000" fill-opacity=".08" fill-rule="evenodd" d="M0 117v-2h3.105v-3h2v3H8v2H5.105v3h-2v-3zm28 0v-2h3.105v-3h2v3H36v2h-2.895v3h-2v-3zm28 0v-2h3.105v-3h2v3H64v2h-2.895v3h-2v-3zm28 0v-2h3.106v-3h2v3H92v2h-2.894v3h-2v-3zm28 0v-2h3.105v-3h2v3H120v2h-2.895v3h-2v-3zM0 89v-2h3.105v-3h2v3H8v2H5.105v3h-2v-3zm28 0v-2h3.105v-3h2v3H36v2h-2.895v3h-2v-3zm28 0v-2h3.105v-3h2v3H64v2h-2.895v3h-2v-3zm28 0v-2h3.106v-3h2v3H92v2h-2.894v3h-2v-3zm28 0v-2h3.105v-3h2v3H120v2h-2.895v3h-2v-3zM0 61v-2h3.105v-3h2v3H8v2H5.105v3h-2v-3zm28 0v-2h3.105v-3h2v3H36v2h-2.895v3h-2v-3zm28 0v-2h3.105v-3h2v3H64v2h-2.895v3h-2v-3zm28 0v-2h3.106v-3h2v3H92v2h-2.894v3h-2v-3zm28 0v-2h3.105v-3h2v3H120v2h-2.895v3h-2v-3zM0 33v-2h3.105v-3h2v3H8v2H5.105v3h-2v-3zm28 0v-2h3.105v-3h2v3H36v2h-2.895v3h-2v-3zm28 0v-2h3.105v-3h2v3H64v2h-2.895v3h-2v-3zm28 0v-2h3.106v-3h2v3H92v2h-2.894v3h-2v-3zm28 0v-2h3.105v-3h2v3H120v2h-2.895v3h-2v-3zM0 5V3h3.105V0h2v3H8v2H5.105v3h-2V5zm28 0V3h3.105V0h2v3H36v2h-2.895v3h-2V5zm28 0V3h3.105V0h2v3H64v2h-2.895v3h-2V5zm28 0V3h3.106V0h2v3H92v2h-2.894v3h-2V5zm28 0V3h3.105V0h2v3H120v2h-2.895v3h-2V5z" clip-rule="evenodd"/></svg>